<svg width="500" height="500" viewBox="0 0 966 966" fill="none" xmlns="http://www.w3.org/2000/svg">
<circle cx="483" cy="483" r="461.5" stroke="black" stroke-width="43"/>
<path d="M274.553 359.23C274.553 362.844 273.723 366.018 272.062 368.752C270.402 371.389 267.717 372.707 264.006 372.707H231.34V572.219H334.465C342.766 572.219 349.895 571.047 355.852 568.703C361.906 566.359 365.275 561.33 365.959 553.615L370.207 512.453C370.598 509.23 371.818 506.887 373.869 505.422C376.018 503.957 378.801 503.225 382.219 503.225C385.832 503.225 388.957 504.201 391.594 506.154C394.328 508.107 395.695 511.037 395.695 514.943L389.104 588.039C388.811 590.773 387.932 593.117 386.467 595.07C385.002 597.023 382.902 598 380.168 598H153.264C149.846 598 147.16 596.779 145.207 594.338C143.352 591.799 142.424 588.918 142.424 585.695C142.424 582.082 143.254 578.957 144.914 576.32C146.574 573.586 149.26 572.219 152.971 572.219H197.062V372.707H162.053C158.342 372.707 155.656 371.389 153.996 368.752C152.336 366.018 151.506 362.844 151.506 359.23C151.506 356.008 152.434 353.176 154.289 350.734C156.242 348.195 158.928 346.926 162.346 346.926H263.713C267.131 346.926 269.768 348.195 271.623 350.734C273.576 353.176 274.553 356.008 274.553 359.23ZM714.885 585.695C714.885 582.082 715.715 578.957 717.375 576.32C719.035 573.586 721.721 572.219 725.432 572.219H752.092V417.092L663.615 583.059C662.639 585.598 660.93 587.844 658.488 589.797C656.047 591.652 653.166 592.58 649.846 592.58C646.818 592.58 644.084 591.799 641.643 590.236C639.299 588.576 637.639 586.672 636.662 584.523L553.752 415.041V572.219H583.488C587.199 572.219 589.885 573.586 591.545 576.32C593.205 578.957 594.035 582.082 594.035 585.695C594.035 588.918 593.059 591.799 591.105 594.338C589.25 596.779 586.613 598 583.195 598H490.764C487.346 598 484.66 596.779 482.707 594.338C480.852 591.799 479.924 588.918 479.924 585.695C479.924 582.082 480.754 578.957 482.414 576.32C484.074 573.586 486.76 572.219 490.471 572.219H523.137V372.707H493.547C489.836 372.707 487.15 371.389 485.49 368.752C483.83 366.018 483 362.844 483 359.23C483 356.008 483.928 353.176 485.783 350.734C487.736 348.195 490.422 346.926 493.84 346.926H543.059C545.695 346.926 547.746 347.707 549.211 349.27C550.773 350.832 551.994 352.541 552.873 354.396L649.846 549.953L753.264 353.225C754.143 351.564 755.363 350.1 756.926 348.83C758.488 347.561 760.49 346.926 762.932 346.926H809.66C813.078 346.926 815.715 348.195 817.57 350.734C819.523 353.176 820.5 356.008 820.5 359.23C820.5 362.844 819.67 366.018 818.01 368.752C816.35 371.389 813.664 372.707 809.953 372.707H783.293V572.219H813.029C816.74 572.219 819.377 573.586 820.939 576.32C822.6 578.957 823.43 582.082 823.43 585.695C823.43 588.918 822.502 591.799 820.646 594.338C818.791 596.779 816.154 598 812.736 598H725.725C722.307 598 719.621 596.779 717.668 594.338C715.812 591.799 714.885 588.918 714.885 585.695Z" fill="black"/>
</svg>
