<svg width="800" height="1073" viewBox="0 0 800 1073" fill="none" xmlns="http://www.w3.org/2000/svg">
<path fill-rule="evenodd" clip-rule="evenodd" d="M191.507 0C196.776 0 201.659 2.76447 204.37 7.28256L387.138 311.896C392.964 321.606 407.036 321.606 412.862 311.896L595.63 7.28256C598.341 2.76448 603.224 0 608.493 0H785C793.284 0 800 6.71571 800 15V873V1000V1058C800 1066.28 793.284 1073 785 1073H200H15C6.71573 1073 0 1066.28 0 1058V1000V873V273V15C0 6.71573 6.71573 0 15 0H191.507ZM227.862 379.771C220.035 366.725 200 372.275 200 387.488V858C200 866.284 206.716 873 215 873H585C593.284 873 600 866.284 600 858V387.488C600 372.275 579.965 366.725 572.138 379.771L504.37 492.717C501.659 497.236 496.776 500 491.507 500H308.493C303.224 500 298.341 497.236 295.63 492.717L227.862 379.771Z" fill="black"/>
</svg>
