<svg width="218" height="138" viewBox="0 0 218 138" fill="none" xmlns="http://www.w3.org/2000/svg">
<path d="M17.8 18.9L0 37.1V52V67L18.2 48.7L36.5 30.5L54.5 48.5L72.6 66.5L90.8 48.3L109 30L127.2 48.3L145.4 66.5L163.5 48.5L181.5 30.5L199.8 48.7L218 67V52V37L199.7 18.7L181.5 0.5L163.5 18.5L145.5 36.5L127.3 18.3L109 0L90.7 18.3L72.5 36.5L54.5 18.5C44.6 8.6 36.3 0.599998 36 0.599998C35.7 0.699997 27.5 9 17.8 18.9Z" fill="black"/>
<path d="M18.2 89.8L0 108V123V138L18 120L36 102L53.8 119.8C63.5 129.5 72 137.5 72.5 137.5C73 137.5 81.5 129.5 91.2 119.8L109 102L126.8 119.8C136.5 129.5 144.9 137.5 145.3 137.5C145.7 137.5 153.8 129.6 163.2 120C172.6 110.4 180.7 102.5 181.4 102.5C182 102.5 190.5 110.5 200.2 120.2L218 138V123V108L199.8 89.8L181.5 71.5L163.3 89.7L145 108L127 90L109 72L91 90L73 108L54.7 89.7L36.5 71.5L18.2 89.8Z" fill="black"/>
</svg>
