<svg width="204" height="264" viewBox="0 0 204 264" fill="none" xmlns="http://www.w3.org/2000/svg">
<path d="M31.9 1.7048C17.4 6.50482 6.6 19.5048 1.9 37.7048C0.1 44.8048 0 49.5048 0 131.605V217.905H13.5H26.9L27.2 129.605L27.5 41.4048L30 36.5048C33.1 30.4048 36.4 27.8048 42.1 27.2048C47.3 26.6048 52.2 29.4048 55.3 34.6048C58.5 40.1048 58.9 53.2048 59 137.105V217.905H72.5H85.9L86.2 128.605C86.5 41.7048 86.6 39.3048 88.5 35.5048C91.2 30.2048 94.8 27.7048 100.7 27.2048C104.6 26.8048 106.2 27.2048 108.9 29.1048C115.2 33.3048 116.1 36.1048 117.6 55.7048C122.5 119.505 129.1 156.405 141.9 191.205L146.7 204.405L143.2 211.405C138.2 221.605 130.6 232.205 123.7 238.505L117.7 244.105L127.1 253.505C132.2 258.705 136.8 262.805 137.1 262.705C138.7 262.005 149.7 248.505 154.7 240.905C161.5 230.805 161.2 231.105 161.7 232.605C162.8 235.705 174.4 252.105 179.1 257.205L184.5 263.005L193.9 253.505L203.4 244.005L196.8 237.605C189.8 230.705 182.2 220.105 177.2 210.205L174.1 204.105L177.5 195.305C191.6 159.305 203.1 96.8048 203.3 54.9048C203.3 43.6048 202.9 40.3048 201.1 34.4048C196.2 19.3048 187.6 8.40482 176.2 3.10483C171.2 0.704803 169.3 0.404816 161 0.504822C153 0.504822 150.6 0.904816 145.8 3.10483C142.7 4.60483 138.2 7.60481 135.7 9.80482L131.3 13.8048L127.6 10.0048C125.5 7.90482 121.3 4.90482 118.2 3.30481C113 0.704803 111.5 0.404816 102.5 0.504822C93.9 0.504822 91.7 0.904816 87 3.10483C84 4.50482 79.4 7.50482 76.9 9.70482L72.3 13.8048L68.6 10.0048C59.9 1.10483 44.3 -2.39517 31.9 1.7048ZM167.9 28.7048C176.9 33.2048 178.3 47.3048 173.9 89.4048C171.5 112.705 168 134.205 163.3 154.405C160.4 166.705 160.4 166.705 157.1 151.805C151.7 126.605 147.8 97.5048 145.9 68.3048C144.1 40.9048 146 32.0048 154.4 28.3048C158.7 26.5048 163.9 26.6048 167.9 28.7048Z" fill="black"/>
</svg>
