<svg width="222" height="263" viewBox="0 0 222 263" fill="none" xmlns="http://www.w3.org/2000/svg">
<path d="M31.7 1.79028C20.7 5.39029 11 14.9903 5.5 27.3903C0 39.7903 0 38.3903 0 131.59V217.89H13.5H26.9L27.2 129.59L27.5 41.3903L30 36.4903C33.1 30.3903 36.4 27.7903 42.1 27.1903C45.6 26.7903 47.2 27.1903 49.9 29.0903C54.8 32.3903 56.9 36.4903 58 44.9903C58.5 49.1903 59 88.2903 59 135.09V217.89H72.5H85.9L86.2 129.09C86.5 40.5903 86.5 40.3903 88.7 35.6903C91.3 30.0903 94.6 27.6903 100.8 27.1903C107 26.5903 111.6 29.5903 115 36.3903L117.5 41.3903L118 131.89C118.5 221.69 118.6 222.49 120.7 228.89C125.5 242.89 134.5 254.09 145.7 259.59C150.9 262.09 152.5 262.39 161.5 262.39C173.8 262.29 178.8 260.29 187.1 251.89C195.8 243.29 201.9 229.29 203.5 214.59C203.9 210.89 204.4 207.89 204.6 207.89C204.7 207.89 208.6 210.09 213.2 212.89L221.5 217.89L221.8 206.19C222 197.69 221.7 194.19 220.8 193.29C220.1 192.69 212.9 187.39 204.9 181.59L190.3 171.09L174.4 180.79L158.5 190.49L158.2 204.19C158 211.69 158.2 217.89 158.5 217.89C158.9 217.89 163 215.59 167.7 212.79C172.3 209.99 176.4 207.89 176.7 208.29C177.6 209.19 174.9 225.19 173.2 228.79C170.9 233.69 166.6 236.09 160.7 235.59C154.6 235.09 151.2 232.59 148 226.29L145.5 221.39L145 131.39L144.5 41.3903L142.1 34.3903C138.6 23.8903 133.7 15.7903 127 9.49028C122.1 4.99026 119.6 3.49026 113.8 1.79028C100.7 -2.20972 87 0.690277 76.9 9.69028L72.3 13.7903L68.4 9.79027C59.8 0.990265 44.3 -2.40973 31.7 1.79028Z" fill="black"/>
</svg>
