<svg width="218" height="135" viewBox="0 0 218 135" fill="none" xmlns="http://www.w3.org/2000/svg">
<path d="M98.2 1.28208C77.6 6.28208 57 28.5821 55.3 47.6821L54.7 53.8821H27.4H0V67.8821V81.8821H41H82V65.3821C82 49.7821 82.1 48.4821 84.4 43.9821C89 34.9821 100.7 26.8821 109 26.8821C117.5 26.8821 129.4 35.2821 133.6 44.3821C135.8 48.9821 136 50.6821 136 65.5821V81.8821H177H218V67.8821V53.8821H190.5H163V50.5821C163 35.2821 147.6 13.7821 131 5.68208C119.1 -0.0179214 109.3 -1.31792 98.2 1.28208Z" fill="black"/>
<path d="M0 121.882V134.882H109H218V121.882V108.882H109H0V121.882Z" fill="black"/>
</svg>
