<svg width="218" height="193" viewBox="0 0 218 193" fill="none" xmlns="http://www.w3.org/2000/svg">
<path d="M85.9998 0.308662C73.2998 1.40867 61.5998 3.00867 53.1998 4.70866C20.9998 11.4087 2.19984 29.8087 0.299838 56.2087C-0.600162 69.0087 3.39984 81.0087 12.1998 92.2087C30.0998 114.809 58.2998 120.309 81.0998 105.609C94.0998 97.1087 104 83.8087 107.6 69.6087C110.6 58.0087 107.9 44.4087 100.6 33.5087L97.0998 28.2087L102.8 27.5087C110.6 26.4087 135.3 27.5087 148 29.3087C172.4 33.0087 191.5 41.3087 210.3 56.4087L218 62.7087V49.3087V35.9087L212.9 31.3087C196.5 16.6087 173.3 6.50867 145.7 2.20866C135.9 0.608665 96.5998 -0.591331 85.9998 0.308662ZM63.5998 34.6087C77.8998 41.1087 85.1998 57.6087 79.0998 69.6087C69.1998 88.9087 48.6998 92.2087 34.7998 76.8087C24.2998 65.1087 24.7998 52.1087 36.1998 41.0087C44.3998 33.1087 54.7998 30.6087 63.5998 34.6087Z" fill="black"/>
<path d="M153.3 79.1087C143.3 81.6087 135.1 86.5087 126.5 95.1087C108 113.709 104.2 133.909 115.1 154.709C116.7 157.709 118.8 161.309 119.7 162.609L121.4 165.009L97.5 164.409C78.4 164.009 71.5 163.509 63.9 161.809C40.5 156.709 21.7 147.809 5.3 134.009L0 129.509V143.009V156.509L4.8 160.809C31 184.109 72.2 194.609 126.7 191.609C176.1 189.009 205.3 175.909 214.2 152.509C217.1 144.709 218.3 133.709 217.1 125.409C212.6 95.5087 180.8 72.5087 153.3 79.1087ZM173.5 107.709C178.6 109.909 185.3 116.609 188 122.209C195 136.609 184.5 155.409 167.5 159.009C159.3 160.709 152.3 158.209 145 150.809C135.9 141.709 133.8 131.809 138.9 121.809C146.2 107.609 160.1 101.909 173.5 107.709Z" fill="black"/>
</svg>
