<svg width="240" height="241" viewBox="0 0 240 241" fill="none" xmlns="http://www.w3.org/2000/svg">
<path d="M180 0.507034C163.2 2.90703 149.1 13.707 141.2 30.107C136 41.207 135.7 55.207 140.5 67.607C141 69.007 140.5 69.307 137.4 69.607L133.6 69.907L107.6 131.607C93 166.207 81.3 192.807 80.9 192.107C80.5 191.507 74.8 175.407 68.2 156.407C61.6 137.407 50 104.407 42.6 83.007C35.1 61.607 29 43.907 29 43.707C29 43.607 22.5 43.407 14.5 43.407C6.5 43.407 0 43.707 0 44.107C0.1 44.607 15.3 87.407 33.9 139.407L67.6 233.907H81.4H95.1L124.5 165.407L153.8 96.907L160.9 96.607L167.9 96.307L179.3 107.607C191.7 119.907 197.1 127.207 203 139.707C208.7 151.507 210.3 158.807 209.8 170.407C209.5 178.807 209 180.907 206.2 186.607C198.4 202.407 180.6 212.107 155.8 214.007L147 214.707V227.707V240.707L157.8 240.007C185.6 238.107 205.3 230.307 220.5 215.007C229.4 206.007 234.7 196.907 237.6 185.407C240 176.107 239.8 160.107 237.1 149.907C233 134.307 220.3 111.807 209.1 100.507L202.4 93.707L207.4 91.407C210.5 90.007 215.3 86.207 219.6 82.007C229.8 71.707 234 62.107 234 48.407C234 40.107 232.7 34.807 228.9 27.007C219.6 8.00703 200.3 -2.49297 180 0.507034ZM194 30.107C208 37.507 210.2 54.007 198.4 64.307C193.8 68.407 191.1 69.407 184.9 69.407C170.8 69.407 160.4 55.007 165.5 42.707C168 36.807 171.8 32.607 176.8 29.907C183 26.707 187.6 26.807 194 30.107Z" fill="black"/>
</svg>
