<svg width="203" height="218" viewBox="0 0 203 218" fill="none" xmlns="http://www.w3.org/2000/svg">
<path d="M5.5 4.7C34.1 29.3 47.1 49.3 51.9 76.1C52.7 80.7 53.5 86.5 53.7 89L54 93.5L31.2 93.8L8.5 94V108V122H30.8C43.1 122 53.4 122.2 53.6 122.5C53.9 122.7 53.7 126.9 53.3 131.7C51.5 150.8 44.3 169.4 33.1 184.3C27.6 191.7 3.2 216 1.4 216C0.9 216 0.5 216.4 0.5 217C0.5 217.6 6.3 218 15.9 218H31.2L39.6 210.6C65.3 188 77.1 166.1 80.5 134.8C81 129.4 81.5 124.4 81.5 123.5C81.5 122.2 84.2 122 101.5 122H121.5V127.2C121.5 135.4 124.2 151.2 127 159.5C132.9 177.2 139.8 187.5 157.1 204.7L170.4 218H186.4H202.4L185.7 201.3C172.7 188.2 167.9 182.7 164.1 176.2C155.9 162.3 150.8 146.3 149 128.7L148.3 122H170.9H193.5V108V94H171H148.5V91.7C148.6 82.1 152.6 65.2 157.5 53.9C164.3 38 174.2 25.4 193.7 7.89999L202.5 0H186.2H169.9L157.9 11.4C144.7 23.9 137.5 33.5 131.4 46.5C125.7 58.7 121.5 76.8 121.5 89.6V94H101.5C83.1 94 81.5 93.9 81.5 92.2C81.5 87 79.2 71.4 77.4 64.2C72 42.5 61.2 25.6 41.5 8.3L32.1 0H16.1H0L5.5 4.7Z" fill="black"/>
</svg>
