<svg width="163" height="218" viewBox="0 0 163 218" fill="none" xmlns="http://www.w3.org/2000/svg">
<path d="M0.000262355 3.19997C0.000262355 8.79997 2.70026 19.4 6.10026 27.5C11.7003 41.1 20.7003 52.5 35.9003 65.7L39.2003 68.6L32.6003 74C13.2003 89.7 0.100262 114.8 0.000262355 136.3C-0.0997376 169.3 28.4003 204.9 63.5003 215.6C72.8003 218.5 92.3003 218.2 101.4 215.2C130.8 205.4 154.9 179.7 161.6 151.3C163.9 141.7 163.1 124.8 160 116C153.7 98 142.3 82.4 127.1 70.9L123.7 68.4L129.9 63.6C148.2 49.5 163 23.1 163 4.49997V-3.05176e-05H149.6H136.3L135.6 5.49997C133.6 22.9 118.9 42.6 102.3 50.2C83.5003 58.7 63.2003 55.1 47.3003 40.6C36.7003 30.9 30.2003 19.3 27.8003 5.69997L26.8003 -3.05176e-05H13.4003H0.000262355V3.19997ZM91.1003 83C114.5 87.3 136 113.2 136 137C135.9 163.5 108.2 191.1 81.5003 191C57.1003 190.9 30.8003 166.8 27.5003 141.3C26.5003 134.2 28.6003 124.6 33.2003 115C40.8003 99.2 57.5003 85.6 72.1003 83.1C79.7003 81.9 84.9003 81.8 91.1003 83Z" fill="black"/>
</svg>
