<svg width="223" height="219" viewBox="0 0 223 219" fill="none" xmlns="http://www.w3.org/2000/svg">
<path d="M19.5061 1.9547C11.1061 4.85469 4.40609 11.2547 1.90609 18.7547C-0.893913 27.2547 -0.593913 42.5547 2.70609 55.4547C7.40609 73.6547 13.3061 85.0547 21.8061 92.3547C25.8061 95.8547 50.5061 108.755 53.1061 108.755C54.1061 108.755 54.4061 105.755 54.4061 95.7547V82.8547L47.2061 79.0547C42.3061 76.4547 38.9061 73.8547 36.7061 70.9547C32.8061 65.7547 26.5061 46.9547 25.7061 38.0547C25.2061 32.4547 25.3061 31.7547 27.7061 29.3547C32.9061 24.1547 43.1061 26.2547 62.1061 36.3547C69.1061 40.0547 80.0061 45.7547 86.1061 48.9547L97.4061 54.8547L97.6061 136.555L97.9061 218.255H111.406H124.906L125.406 136.455L125.906 54.6547L130.406 52.3547C132.906 51.1547 143.506 45.5547 154.106 39.8547C173.506 29.4547 180.506 26.7547 188.206 26.7547C194.006 26.7547 197.406 30.0547 197.406 35.6547C197.406 40.2547 191.306 62.0547 188.506 67.4547C185.906 72.5547 182.006 76.0547 175.106 79.4547L169.306 82.3547L169.106 95.5547C169.006 104.255 169.306 108.755 170.006 108.755C172.806 108.755 198.006 95.1547 201.906 91.6547C210.206 84.0547 215.406 73.6547 220.106 55.4547C223.406 42.4547 223.806 27.1547 221.006 18.8547C218.606 11.7547 211.706 4.7547 204.906 2.35469C193.306 -1.64531 176.406 -0.345306 158.406 5.9547C147.306 9.85469 143.906 11.6547 131.606 19.8547L121.306 26.7547H111.406H101.506L91.7061 20.0547C73.4061 7.65469 55.0061 1.0547 35.9061 0.154694C27.4061 -0.2453 25.0061 0.0547028 19.5061 1.9547Z" fill="black"/>
</svg>
