<svg width="216" height="263" viewBox="0 0 216 263" fill="none" xmlns="http://www.w3.org/2000/svg">
<path d="M96.4862 0.912964C70.2862 4.31296 53.2862 18.613 44.1862 44.813C41.3862 53.113 40.9862 55.613 40.9862 64.313C40.9862 76.013 42.1862 79.713 53.9862 105.213C58.0862 114.013 61.3862 121.313 61.3862 121.413C61.3862 121.513 57.8862 121.413 53.6862 121.113C38.9862 120.113 25.1862 125.213 14.4862 135.713C-9.51385 159.513 -2.81385 198.013 28.0862 213.013C41.9862 219.713 55.8862 219.413 70.2862 212.213C83.2862 205.713 93.9862 191.213 96.2862 176.813C99.5862 156.713 96.1861 141.413 80.3862 104.313C66.4862 71.713 64.9862 65.713 67.7862 53.513C71.6861 36.913 80.4862 28.713 97.7862 25.713C103.086 24.813 108.186 24.813 119.786 25.713C150.686 28.113 158.686 30.313 167.686 38.813C176.186 47.013 177.886 52.113 177.786 70.813C177.786 84.013 177.586 86.013 175.086 93.113C171.486 103.413 166.886 112.413 150.386 141.313C134.386 169.413 131.386 175.813 127.886 189.413C121.086 216.413 122.486 236.413 132.286 248.613C138.886 256.913 156.586 263.613 168.886 262.513C181.686 261.313 195.286 254.113 209.386 241.013C217.986 233.013 218.186 234.413 207.186 222.513L200.886 215.813L192.286 224.213C180.686 235.413 175.686 238.313 167.886 238.313C160.786 238.213 153.186 235.213 151.286 231.613C147.886 225.413 148.386 212.813 152.886 195.413C155.886 183.513 160.986 173.213 175.586 149.813C188.686 128.813 191.186 124.113 196.086 111.413C205.286 87.613 206.086 54.713 197.986 36.413C194.486 28.713 187.186 19.613 180.686 15.113C167.586 6.01297 153.086 2.31296 125.886 0.812958C106.686 -0.287048 105.386 -0.287048 96.4862 0.912964ZM59.2862 144.713C68.8862 149.613 75.3862 159.713 75.3862 169.513C75.2862 179.613 68.8862 189.513 58.9862 194.513C46.7862 200.713 31.1862 195.113 24.0862 182.013C18.0862 170.913 19.7862 160.213 29.1862 150.813C32.6862 147.313 36.6862 144.513 39.3862 143.513C45.1862 141.413 53.6862 141.913 59.2862 144.713Z" fill="black"/>
</svg>
