<svg width="704" height="736" viewBox="0 0 704 736" fill="none" xmlns="http://www.w3.org/2000/svg">
<g clip-path="url(#clip0_13_44)">
<rect width="704" height="736" fill="white"/>
<path d="M352 10.0396L457.202 223.202L692.441 257.384L522.221 423.308L562.404 657.596L352 546.98L141.596 657.596L181.78 423.308L11.5596 257.384L246.798 223.202L352 10.0396Z" fill="#689689"/>
<path d="M229.571 31.6272L401.334 195.953L634.077 147.618L530.872 361.754L648.763 568.169L413.215 536.186L253.333 712.094L210.962 478.191L-5.7419 380.493L203.619 267.916L229.571 31.6272Z" fill="#1C2541"/>
<path d="M141.596 78.4039L352 189.02L562.404 78.4039L522.22 312.692L692.441 478.616L457.202 512.798L352 725.96L246.798 512.798L11.5594 478.616L181.78 312.692L141.596 78.4039Z" fill="#EEE0CB"/>
<circle cx="352" cy="368" r="35.796" fill="white"/>
</g>
<defs>
<clipPath id="clip0_13_44">
<rect width="704" height="736" fill="white"/>
</clipPath>
</defs>
</svg>
