<svg width="1600" height="1600" viewBox="0 0 1600 1600" fill="" xmlns="http://www.w3.org/2000/svg">
<circle cx="800" cy="800" r="800" fill="#eee0cb"/>
<path fill-rule="evenodd" clip-rule="evenodd" d="M591.507 264C596.776 264 601.659 266.764 604.37 271.283L787.138 575.896C792.964 585.606 807.036 585.606 812.862 575.896L995.63 271.283C998.341 266.764 1003.22 264 1008.49 264H1185C1193.28 264 1200 270.716 1200 279V1137V1264V1322C1200 1330.28 1193.28 1337 1185 1337H600H415C406.716 1337 400 1330.28 400 1322V1264V1137V537V279C400 270.716 406.716 264 415 264H591.507ZM627.862 643.771C620.035 630.725 600 636.275 600 651.488V1122C600 1130.28 606.716 1137 615 1137H985C993.284 1137 1000 1130.28 1000 1122V651.488C1000 636.275 979.965 630.725 972.138 643.771L904.37 756.717C901.659 761.236 896.776 764 891.507 764H708.493C703.224 764 698.341 761.236 695.63 756.717L627.862 643.771Z" fill="black"/>
</svg>
